# xmcd CD database file
#
# Track frame offsets:
#	150
#	17150
#	38392
#	57228
#	77683
#	94838
#	114702
#	129233
#	147748
#	157498
#	170443
#	193148
#
# Disc length: 2907 seconds
#
# Revision: 2
# Processed by: cddbd v1.5.2PL0 Copyright (c) Steve Scherf et al.
# Submitted via: CDex 1.70beta3
#
DISCID=a60b590c
DTITLE=つじあやの - Sweet, Sweet Happy Birthday
DYEAR=2007
DGENRE=blues
TTITLE0=マーメイド
TTITLE1=Sweet Happy Birthday
TTITLE2=揺れる夜、愛に抱かれて
TTITLE3=Fly High
TTITLE4=雨上がりの私
TTITLE5=さよなら愛してる
TTITLE6=愛を知りたくて
TTITLE7=黒い瞳と青い海
TTITLE8=ダーリン
TTITLE9=七つの海越えて
TTITLE10=真夜中の散歩道
TTITLE11=心に花を咲かせましょう
EXTD=YEAR: 2007
EXTT0=
EXTT1=
EXTT2=
EXTT3=
EXTT4=
EXTT5=
EXTT6=
EXTT7=
EXTT8=
EXTT9=
EXTT10=
EXTT11=
PLAYORDER=
